<svg width="135" height="40" viewBox="0 0 135 40" fill="none" xmlns="http://www.w3.org/2000/svg">
<path d="M124.249 0.00013H10.7566C10.3429 0.00013 9.9342 0.00013 9.5216 0.00213C9.17621 0.00413 8.83358 0.00994 8.48488 0.01483C7.72733 0.0227318 6.97157 0.0818063 6.22416 0.19154C5.4778 0.303663 4.75482 0.515046 4.07967 0.81854C3.40534 1.1246 2.7892 1.5223 2.25357 1.9972C1.71514 2.47077 1.26632 3.01815 0.924356 3.61829C0.581453 4.21724 0.343683 4.85907 0.219258 5.52161C0.0936495 6.18332 0.0260586 6.85265 0.0170916 7.52361C0.00662229 7.83021 0.00551669 8.13783 0 8.44447V31.5587C0.00551669 31.8692 0.00662229 32.17 0.0170916 32.4806C0.0260614 33.1516 0.0936522 33.8209 0.219258 34.4825C0.343339 35.1455 0.581124 35.7877 0.924356 36.3868C1.26616 36.985 1.71505 37.5302 2.25357 38.0011C2.78717 38.4781 3.40371 38.8761 4.07967 39.1798C4.75481 39.4841 5.47772 39.6968 6.22416 39.8106C6.9717 39.9195 7.72738 39.9786 8.48488 39.9874C8.83358 39.9942 9.17621 39.9981 9.5216 39.9981C9.93419 40.0001 10.343 40.0001 10.7566 40.0001H124.249C124.655 40.0001 125.067 40.0001 125.472 39.9981C125.816 39.9981 126.169 39.9942 126.512 39.9874C127.268 39.9791 128.023 39.92 128.769 39.8106C129.518 39.696 130.243 39.4834 130.921 39.1798C131.597 38.8759 132.213 38.478 132.746 38.0011C133.283 37.5284 133.733 36.9836 134.079 36.3868C134.42 35.7872 134.655 35.1451 134.777 34.4825C134.903 33.8208 134.973 33.1516 134.987 32.4806C134.991 32.17 134.991 31.8692 134.991 31.5587C135 31.1954 135 30.8341 135 30.4649V9.53626C135 9.17005 135 8.80677 134.991 8.44447C134.991 8.13783 134.991 7.83021 134.987 7.52357C134.973 6.85255 134.903 6.18337 134.777 5.52157C134.655 4.85941 134.419 4.21763 134.079 3.61825C133.383 2.41533 132.278 1.43616 130.921 0.81845C130.243 0.515697 129.518 0.30437 128.769 0.19145C128.023 0.0812328 127.269 0.0221378 126.512 0.01469C126.169 0.00981 125.816 0.00395 125.472 0.002C125.067 0 124.655 0 124.249 0V0.00013Z" fill="#A6A6A6"/>
<path d="M9.43001 39.1281C9.08569 39.1281 8.74969 39.1242 8.40807 39.1174C7.70037 39.1093 6.99433 39.0547 6.29574 38.9543C5.64433 38.855 5.0133 38.6703 4.42345 38.4063C3.839 38.1445 3.30594 37.8011 2.84469 37.3895C2.37676 36.9827 1.98718 36.5108 1.6914 35.9927C1.39236 35.4712 1.18541 34.9122 1.07775 34.3351C0.961494 33.7151 0.898592 33.0882 0.889592 32.4597C0.882427 32.2488 0.873047 31.5464 0.873047 31.5464V8.44106C0.873047 8.44106 0.883037 7.7495 0.889648 7.54633C0.898266 6.91888 0.960802 6.29292 1.07671 5.67387C1.18457 5.09527 1.39168 4.53465 1.69088 4.01142C1.98557 3.49362 2.37299 3.02144 2.8381 2.61318C3.30269 2.20103 3.83745 1.85594 4.42289 1.59049C5.01139 1.32732 5.64123 1.14392 6.29132 1.04644C6.99221 0.944984 7.7007 0.890133 8.41085 0.882345L9.43056 0.870132H125.57L126.602 0.882835C127.306 0.890236 128.008 0.944598 128.702 1.04546C129.359 1.14416 129.995 1.32884 130.59 1.59342C131.763 2.12838 132.718 2.97474 133.32 4.01386C133.614 4.53348 133.818 5.08952 133.924 5.66312C134.042 6.28726 134.107 6.91814 134.121 7.55073C134.124 7.83399 134.124 8.13825 134.124 8.44106C134.133 8.81613 134.133 9.17314 134.133 9.53307V30.4661C134.133 30.8295 134.133 31.1841 134.124 31.5415C134.124 31.8668 134.124 32.1648 134.12 32.4714C134.107 33.0927 134.042 33.7124 133.927 34.3253C133.821 34.9065 133.615 35.4699 133.316 35.9957C133.018 36.5082 132.631 36.9759 132.169 37.3817C131.707 37.7955 131.173 38.1409 130.587 38.4044C129.994 38.6704 129.358 38.8558 128.702 38.9543C128.004 39.0553 127.297 39.1098 126.59 39.1174C126.259 39.1242 125.912 39.1281 125.576 39.1281L124.35 39.1301L9.43001 39.1281Z" fill="black"/>
<path d="M32.7973 18.8637C32.8081 18.029 33.0298 17.2106 33.4418 16.4847C33.8538 15.7587 34.4428 15.1488 35.1539 14.7116C34.7021 14.0664 34.1062 13.5355 33.4134 13.161C32.7205 12.7864 31.9499 12.5786 31.1627 12.5539C29.4835 12.3777 27.8555 13.5588 26.9998 13.5588C26.1275 13.5588 24.81 12.5714 23.3913 12.6006C22.4736 12.6303 21.5793 12.8971 20.7954 13.3752C20.0115 13.8532 19.3649 14.5262 18.9184 15.3285C16.9844 18.6769 18.427 23.598 20.2796 26.3046C21.2065 27.6299 22.2898 29.1104 23.7072 29.0579C25.0943 29.0003 25.6123 28.1734 27.2866 28.1734C28.9454 28.1734 29.4314 29.0579 30.8776 29.0245C32.366 29.0003 33.3038 27.6932 34.1981 26.3553C34.8641 25.411 35.3766 24.3673 35.7166 23.2628C34.8518 22.8971 34.1139 22.2849 33.5948 21.5026C33.0757 20.7203 32.7983 19.8025 32.7973 18.8637Z" fill="white"/>
<path d="M30.0656 10.7739C30.8772 9.79968 31.277 8.5475 31.1802 7.28326C29.9403 7.41348 28.7951 8.00604 27.9726 8.94287C27.5704 9.40054 27.2624 9.93298 27.0662 10.5097C26.87 11.0865 26.7893 11.6963 26.8289 12.3043C27.449 12.3106 28.0625 12.1762 28.6232 11.9111C29.1838 11.6461 29.6771 11.2572 30.0656 10.7739Z" fill="white"/>
<path d="M50.3307 25.7026H45.5973L44.4606 29.0591H42.4557L46.9391 16.6411H49.0221L53.5055 29.0591H51.4664L50.3307 25.7026ZM46.0875 24.1538H49.8395L47.9899 18.7065H47.9381L46.0875 24.1538Z" fill="white"/>
<path d="M63.1881 24.5327C63.1881 27.3462 61.6823 29.1538 59.4098 29.1538C58.8342 29.1839 58.2617 29.0513 57.7579 28.7712C57.2541 28.4911 56.8394 28.0747 56.5612 27.5698H56.5182V32.0542H54.6598V20.0054H56.4586V21.5112H56.4928C56.7838 21.0088 57.2055 20.5946 57.7131 20.3127C58.2208 20.0309 58.7953 19.8919 59.3756 19.9107C61.6735 19.9107 63.1881 21.7271 63.1881 24.5327ZM61.278 24.5327C61.278 22.6997 60.3307 21.4946 58.8854 21.4946C57.4655 21.4946 56.5104 22.7251 56.5104 24.5327C56.5104 26.3569 57.4655 27.5786 58.8854 27.5786C60.3307 27.5786 61.278 26.3823 61.278 24.5327Z" fill="white"/>
<path d="M73.153 24.5327C73.153 27.3462 71.6471 29.1538 69.3747 29.1538C68.799 29.1839 68.2265 29.0513 67.7227 28.7712C67.2189 28.491 66.8042 28.0747 66.526 27.5698H66.483V32.0542H64.6246V20.0054H66.4235V21.5112H66.4576C66.7486 21.0088 67.1703 20.5946 67.678 20.3127C68.1856 20.0309 68.7601 19.8919 69.3405 19.9107C71.6383 19.9107 73.153 21.7271 73.153 24.5327ZM71.2428 24.5327C71.2428 22.6997 70.2956 21.4946 68.8502 21.4946C67.4303 21.4946 66.4752 22.7251 66.4752 24.5327C66.4752 26.3569 67.4303 27.5786 68.8502 27.5786C70.2956 27.5786 71.2428 26.3823 71.2428 24.5327H71.2428Z" fill="white"/>
<path d="M79.7389 25.5991C79.8766 26.8306 81.0729 27.6391 82.7077 27.6391C84.2741 27.6391 85.401 26.8305 85.401 25.7202C85.401 24.7563 84.7213 24.1792 83.112 23.7837L81.5026 23.396C79.2223 22.8452 78.1637 21.7788 78.1637 20.0483C78.1637 17.9057 80.0309 16.434 82.6823 16.434C85.3063 16.434 87.1051 17.9057 87.1657 20.0483H85.2897C85.1774 18.809 84.153 18.061 82.6559 18.061C81.1588 18.061 80.1344 18.8178 80.1344 19.9194C80.1344 20.7973 80.7887 21.3139 82.3893 21.7094L83.7574 22.0453C86.3053 22.6479 87.3639 23.6713 87.3639 25.4877C87.3639 27.811 85.5133 29.266 82.5699 29.266C79.816 29.266 77.9567 27.8451 77.8365 25.599L79.7389 25.5991Z" fill="white"/>
<path d="M91.3746 17.8628V20.0054H93.0963V21.4771H91.3746V26.4683C91.3746 27.2437 91.7194 27.605 92.4762 27.605C92.6806 27.6014 92.8846 27.5871 93.0875 27.562V29.0249C92.7472 29.0885 92.4014 29.1172 92.0553 29.1108C90.2223 29.1108 89.5074 28.4223 89.5074 26.6665V21.4771H88.191V20.0054H89.5074V17.8628H91.3746Z" fill="white"/>
<path d="M94.0934 24.5327C94.0934 21.6841 95.7711 19.8941 98.3873 19.8941C101.012 19.8941 102.682 21.6841 102.682 24.5327C102.682 27.3892 101.021 29.1714 98.3873 29.1714C95.7545 29.1714 94.0934 27.3892 94.0934 24.5327ZM100.789 24.5327C100.789 22.5786 99.8932 21.4253 98.3873 21.4253C96.8815 21.4253 95.9869 22.5874 95.9869 24.5327C95.9869 26.4946 96.8815 27.6392 98.3873 27.6392C99.8932 27.6392 100.789 26.4946 100.789 24.5327H100.789Z" fill="white"/>
<path d="M104.214 20.0054H105.987V21.5464H106.03C106.15 21.0651 106.432 20.6398 106.828 20.3419C107.225 20.044 107.712 19.8917 108.208 19.9106C108.422 19.9099 108.635 19.9331 108.844 19.98V21.7183C108.574 21.6356 108.292 21.5977 108.009 21.606C107.739 21.595 107.47 21.6426 107.22 21.7455C106.971 21.8484 106.746 22.0041 106.562 22.202C106.378 22.3999 106.239 22.6352 106.155 22.8919C106.07 23.1486 106.042 23.4205 106.073 23.689V29.0591H104.214L104.214 20.0054Z" fill="white"/>
<path d="M117.413 26.3999C117.163 28.0435 115.562 29.1714 113.514 29.1714C110.88 29.1714 109.246 27.4067 109.246 24.5757C109.246 21.7358 110.889 19.894 113.436 19.894C115.941 19.894 117.516 21.6147 117.516 24.3599V24.9966H111.122V25.1089C111.092 25.4421 111.134 25.7778 111.244 26.0936C111.354 26.4094 111.53 26.6982 111.761 26.9408C111.991 27.1833 112.27 27.3741 112.58 27.5004C112.89 27.6267 113.223 27.6856 113.557 27.6733C113.996 27.7145 114.437 27.6128 114.814 27.3833C115.191 27.1539 115.483 26.809 115.648 26.3999L117.413 26.3999ZM111.13 23.6978H115.657C115.674 23.3982 115.628 23.0983 115.523 22.8171C115.419 22.5359 115.257 22.2794 115.049 22.0636C114.84 21.8479 114.589 21.6775 114.312 21.5633C114.034 21.4491 113.736 21.3935 113.436 21.3999C113.134 21.3981 112.834 21.4562 112.553 21.571C112.273 21.6857 112.019 21.8548 111.805 22.0684C111.59 22.2821 111.42 22.536 111.305 22.8157C111.189 23.0953 111.13 23.3951 111.13 23.6978V23.6978Z" fill="white"/>
<path d="M45.8546 7.294C46.2442 7.26604 46.6352 7.3249 46.9993 7.46634C47.3634 7.60777 47.6916 7.82825 47.9602 8.11187C48.2288 8.3955 48.4311 8.7352 48.5525 9.10647C48.6739 9.47774 48.7114 9.87133 48.6622 10.2588C48.6622 12.1651 47.632 13.2608 45.8546 13.2608H43.6993V7.294H45.8546ZM44.6261 12.417H45.7511C46.0295 12.4336 46.3081 12.388 46.5666 12.2834C46.8252 12.1788 47.0571 12.0178 47.2456 11.8123C47.4341 11.6067 47.5744 11.3617 47.6563 11.0951C47.7381 10.8284 47.7595 10.5469 47.7189 10.271C47.7566 9.99617 47.733 9.7164 47.6499 9.45173C47.5668 9.18707 47.4262 8.94407 47.2381 8.74014C47.05 8.53621 46.8192 8.3764 46.5621 8.27216C46.305 8.16792 46.0281 8.12184 45.7511 8.13721H44.6261V12.417Z" fill="white"/>
<path d="M49.7091 11.0073C49.6808 10.7114 49.7147 10.4129 49.8085 10.1308C49.9024 9.84871 50.0541 9.58937 50.2541 9.36939C50.454 9.14941 50.6977 8.97364 50.9696 8.85336C51.2414 8.73309 51.5354 8.67096 51.8327 8.67096C52.1299 8.67096 52.4239 8.73309 52.6958 8.85336C52.9676 8.97364 53.2113 9.14941 53.4113 9.36939C53.6112 9.58937 53.763 9.84871 53.8568 10.1308C53.9507 10.4129 53.9845 10.7114 53.9562 11.0073C53.9851 11.3036 53.9516 11.6025 53.858 11.8851C53.7644 12.1676 53.6128 12.4274 53.4128 12.6478C53.2128 12.8682 52.9689 13.0444 52.6968 13.1649C52.4246 13.2854 52.1303 13.3477 51.8327 13.3477C51.5351 13.3477 51.2407 13.2854 50.9686 13.1649C50.6965 13.0444 50.4526 12.8682 50.2526 12.6478C50.0526 12.4274 49.9009 12.1676 49.8073 11.8851C49.7137 11.6025 49.6803 11.3036 49.7091 11.0073ZM53.0421 11.0073C53.0421 10.0313 52.6037 9.46047 51.8341 9.46047C51.0617 9.46047 50.6271 10.0313 50.6271 11.0073C50.6271 11.9912 51.0617 12.5576 51.8341 12.5576C52.6037 12.5576 53.0422 11.9873 53.0422 11.0073H53.0421Z" fill="white"/>
<path d="M59.6017 13.2607H58.6798L57.7491 9.94433H57.6788L56.7521 13.2607H55.839L54.5978 8.75781H55.4991L56.3058 12.1938H56.3722L57.298 8.75781H58.1505L59.0763 12.1938H59.1466L59.9493 8.75781H60.838L59.6017 13.2607Z" fill="white"/>
<path d="M61.882 8.75783H62.7374V9.47316H62.8038C62.9165 9.21624 63.1065 9.00086 63.3474 8.85706C63.5882 8.71325 63.868 8.64818 64.1476 8.67091C64.3667 8.65443 64.5867 8.68747 64.7913 8.76756C64.9959 8.84766 65.1798 8.97276 65.3295 9.13361C65.4792 9.29445 65.5908 9.48691 65.656 9.69673C65.7212 9.90655 65.7383 10.1284 65.7062 10.3457V13.2607H64.8175V10.5689C64.8175 9.84524 64.5031 9.48537 63.8458 9.48537C63.6971 9.47844 63.5486 9.50376 63.4105 9.55959C63.2725 9.61542 63.1481 9.70044 63.046 9.80882C62.9439 9.91721 62.8664 10.0464 62.8188 10.1875C62.7713 10.3287 62.7549 10.4784 62.7706 10.6265V13.2608H61.882L61.882 8.75783Z" fill="white"/>
<path d="M67.1222 7H68.0109V13.2607H67.1222V7Z" fill="white"/>
<path d="M69.2462 11.0073C69.2179 10.7114 69.2518 10.4128 69.3457 10.1307C69.4395 9.84866 69.5913 9.58931 69.7913 9.36932C69.9912 9.14934 70.235 8.97357 70.5068 8.85329C70.7787 8.73301 71.0727 8.67088 71.37 8.67088C71.6673 8.67088 71.9613 8.73301 72.2332 8.85329C72.505 8.97357 72.7488 9.14934 72.9487 9.36932C73.1487 9.58931 73.3005 9.84866 73.3943 10.1307C73.4882 10.4128 73.5221 10.7114 73.4938 11.0073C73.5226 11.3036 73.4891 11.6026 73.3955 11.8851C73.3019 12.1676 73.1502 12.4274 72.9502 12.6478C72.7502 12.8682 72.5062 13.0444 72.2341 13.1649C71.962 13.2854 71.6676 13.3477 71.37 13.3477C71.0724 13.3477 70.778 13.2854 70.5059 13.1649C70.2338 13.0444 69.9899 12.8682 69.7898 12.6478C69.5898 12.4274 69.4381 12.1676 69.3445 11.8851C69.2509 11.6026 69.2174 11.3036 69.2462 11.0073ZM72.5792 11.0073C72.5792 10.0313 72.1407 9.46048 71.3712 9.46048C70.5988 9.46048 70.1642 10.0313 70.1642 11.0074C70.1642 11.9912 70.5988 12.5576 71.3712 12.5576C72.1408 12.5576 72.5792 11.9873 72.5792 11.0073H72.5792Z" fill="white"/>
<path d="M74.4293 11.9873C74.4293 11.1768 75.0328 10.7095 76.1041 10.6431L77.3239 10.5728V10.1841C77.3239 9.7085 77.0094 9.43995 76.402 9.43995C75.9059 9.43995 75.5621 9.62208 75.4635 9.94044H74.6031C74.694 9.167 75.4215 8.67091 76.443 8.67091C77.5719 8.67091 78.2086 9.23291 78.2086 10.1841V13.2608H77.3531V12.6279H77.2828C77.1401 12.8549 76.9397 13.04 76.7021 13.1642C76.4645 13.2884 76.1981 13.3473 75.9303 13.3349C75.7413 13.3546 75.5502 13.3344 75.3694 13.2757C75.1887 13.217 75.0222 13.1211 74.8808 12.9941C74.7394 12.8672 74.6262 12.712 74.5484 12.5386C74.4706 12.3652 74.4301 12.1774 74.4293 11.9873ZM77.3239 11.6025V11.2261L76.2242 11.2964C75.6041 11.3379 75.3229 11.5488 75.3229 11.9458C75.3229 12.3511 75.6744 12.5869 76.1579 12.5869C76.2995 12.6013 76.4426 12.587 76.5786 12.5449C76.7146 12.5028 76.8408 12.4338 76.9495 12.3419C77.0583 12.2501 77.1475 12.1373 77.2118 12.0103C77.2761 11.8832 77.3142 11.7446 77.3239 11.6025Z" fill="white"/>
<path d="M79.3766 11.0073C79.3766 9.58449 80.108 8.68312 81.2457 8.68312C81.5271 8.67015 81.8064 8.73756 82.051 8.87745C82.2955 9.01735 82.4951 9.22395 82.6266 9.47312H82.693V7H83.5817V13.2607H82.7301V12.5493H82.6598C82.5182 12.7968 82.3116 13.0008 82.0623 13.1393C81.8131 13.2778 81.5307 13.3455 81.2457 13.3349C80.1002 13.335 79.3766 12.4336 79.3766 11.0073ZM80.2946 11.0073C80.2946 11.9624 80.7448 12.5371 81.4977 12.5371C82.2467 12.5371 82.7096 11.9541 82.7096 11.0112C82.7096 10.0728 82.2419 9.48146 81.4977 9.48146C80.7496 9.48146 80.2946 10.0601 80.2946 11.0073H80.2946Z" fill="white"/>
<path d="M87.2585 11.0073C87.2301 10.7114 87.264 10.4129 87.3578 10.1308C87.4517 9.84871 87.6034 9.58937 87.8034 9.36939C88.0033 9.14941 88.247 8.97364 88.5189 8.85336C88.7907 8.73309 89.0847 8.67096 89.382 8.67096C89.6793 8.67096 89.9732 8.73309 90.2451 8.85336C90.517 8.97364 90.7607 9.14941 90.9606 9.36939C91.1605 9.58937 91.3123 9.84871 91.4061 10.1308C91.5 10.4129 91.5338 10.7114 91.5055 11.0073C91.5344 11.3036 91.5009 11.6025 91.4073 11.8851C91.3137 12.1676 91.1621 12.4274 90.9621 12.6478C90.7621 12.8682 90.5182 13.0444 90.2461 13.1649C89.9739 13.2854 89.6796 13.3477 89.382 13.3477C89.0844 13.3477 88.79 13.2854 88.5179 13.1649C88.2458 13.0444 88.0019 12.8682 87.8019 12.6478C87.6019 12.4274 87.4502 12.1676 87.3566 11.8851C87.2631 11.6025 87.2296 11.3036 87.2585 11.0073ZM90.5915 11.0073C90.5915 10.0313 90.153 9.46047 89.3835 9.46047C88.611 9.46047 88.1765 10.0313 88.1765 11.0073C88.1765 11.9912 88.611 12.5576 89.3835 12.5576C90.153 12.5576 90.5915 11.9873 90.5915 11.0073Z" fill="white"/>
<path d="M92.6979 8.75783H93.5533V9.47316H93.6198C93.7324 9.21624 93.9224 9.00086 94.1633 8.85706C94.4042 8.71325 94.6839 8.64818 94.9635 8.67091C95.1826 8.65443 95.4026 8.68747 95.6072 8.76756C95.8118 8.84766 95.9958 8.97276 96.1454 9.13361C96.2951 9.29445 96.4067 9.48691 96.4719 9.69673C96.5371 9.90655 96.5543 10.1284 96.5221 10.3457V13.2607H95.6334V10.5689C95.6334 9.84524 95.319 9.48537 94.6618 9.48537C94.513 9.47844 94.3645 9.50376 94.2264 9.55959C94.0884 9.61542 93.964 9.70044 93.8619 9.80882C93.7598 9.91721 93.6823 10.0464 93.6348 10.1875C93.5872 10.3287 93.5708 10.4784 93.5865 10.6265V13.2608H92.6979V8.75783Z" fill="white"/>
<path d="M101.544 7.63673V8.77833H102.519V9.52687H101.544V11.8423C101.544 12.314 101.738 12.5205 102.18 12.5205C102.294 12.5202 102.407 12.5133 102.519 12.5V13.2402C102.36 13.2688 102.198 13.284 102.036 13.2857C101.047 13.2857 100.654 12.938 100.654 12.0698V9.52683H99.9391V8.77829H100.654V7.63673H101.544Z" fill="white"/>
<path d="M103.733 7H104.614V9.48145H104.684C104.802 9.22213 104.998 9.00554 105.243 8.86119C105.489 8.71684 105.773 8.65176 106.057 8.67481C106.275 8.66295 106.493 8.69934 106.695 8.78138C106.898 8.86342 107.079 8.9891 107.227 9.14943C107.376 9.30977 107.486 9.50082 107.552 9.70896C107.618 9.91709 107.637 10.1372 107.608 10.3535V13.2607H106.718V10.5728C106.718 9.85351 106.383 9.48925 105.756 9.48925C105.603 9.47672 105.449 9.49772 105.305 9.55077C105.162 9.60383 105.031 9.68766 104.923 9.79639C104.815 9.90513 104.732 10.0362 104.68 10.1803C104.628 10.3244 104.608 10.4782 104.622 10.6308V13.2607H103.733L103.733 7Z" fill="white"/>
<path d="M112.79 12.0449C112.669 12.4565 112.407 12.8125 112.051 13.0506C111.694 13.2888 111.265 13.3939 110.839 13.3477C110.542 13.3555 110.247 13.2987 109.975 13.1811C109.702 13.0636 109.458 12.8882 109.26 12.6671C109.063 12.4459 108.915 12.1844 108.828 11.9005C108.742 11.6167 108.718 11.3174 108.758 11.0235C108.719 10.7286 108.743 10.4286 108.83 10.144C108.916 9.85929 109.063 9.59652 109.26 9.37345C109.457 9.15038 109.699 8.9722 109.971 8.851C110.243 8.72979 110.537 8.66838 110.835 8.67091C112.088 8.67091 112.843 9.52691 112.843 10.9409V11.251H109.664V11.3008C109.65 11.466 109.671 11.6324 109.725 11.7891C109.779 11.9459 109.865 12.0896 109.978 12.211C110.091 12.3325 110.228 12.429 110.38 12.4944C110.533 12.5598 110.697 12.5926 110.863 12.5908C111.076 12.6163 111.291 12.578 111.482 12.4808C111.672 12.3836 111.83 12.2319 111.934 12.0449L112.79 12.0449ZM109.664 10.5938H111.938C111.949 10.4426 111.929 10.2908 111.878 10.1481C111.827 10.0054 111.747 9.87492 111.642 9.76506C111.538 9.6552 111.412 9.5684 111.272 9.51022C111.132 9.45205 110.981 9.42379 110.83 9.42726C110.676 9.42533 110.523 9.45419 110.381 9.51213C110.239 9.57008 110.109 9.65594 110.001 9.76465C109.892 9.87336 109.806 10.0027 109.748 10.1451C109.691 10.2875 109.662 10.4401 109.664 10.5938H109.664Z" fill="white"/>
</svg>
